<mxfile host="app.diagrams.net" modified="2023-09-05T09:20:19.408Z" agent="Mozilla/5.0 (Windows NT 10.0; Win64; x64) AppleWebKit/537.36 (KHTML, like Gecko) Chrome/116.0.0.0 Safari/537.36" etag="5s_1A5bvES2R3-WQGaoZ" version="21.7.2" type="device">
  <diagram name="Page-1" id="bIh1djm6rhLJuUCq5SZA">
    <mxGraphModel dx="1050" dy="566" grid="1" gridSize="10" guides="1" tooltips="1" connect="1" arrows="1" fold="1" page="1" pageScale="1" pageWidth="850" pageHeight="1100" math="0" shadow="0">
      <root>
        <mxCell id="0" />
        <mxCell id="1" parent="0" />
        <mxCell id="Cq1sjQfqMpstkBMXXqz1-17" style="edgeStyle=orthogonalEdgeStyle;rounded=0;orthogonalLoop=1;jettySize=auto;html=1;exitX=0.5;exitY=1;exitDx=0;exitDy=0;entryX=0.5;entryY=0;entryDx=0;entryDy=0;" parent="1" source="Cq1sjQfqMpstkBMXXqz1-1" target="Cq1sjQfqMpstkBMXXqz1-2" edge="1">
          <mxGeometry relative="1" as="geometry" />
        </mxCell>
        <mxCell id="Cq1sjQfqMpstkBMXXqz1-1" value="start" style="rounded=1;whiteSpace=wrap;html=1;" parent="1" vertex="1">
          <mxGeometry x="195" y="60" width="120" height="60" as="geometry" />
        </mxCell>
        <mxCell id="Cq1sjQfqMpstkBMXXqz1-18" style="edgeStyle=orthogonalEdgeStyle;rounded=0;orthogonalLoop=1;jettySize=auto;html=1;exitX=0.5;exitY=1;exitDx=0;exitDy=0;entryX=0.5;entryY=0;entryDx=0;entryDy=0;" parent="1" source="Cq1sjQfqMpstkBMXXqz1-2" target="Cq1sjQfqMpstkBMXXqz1-3" edge="1">
          <mxGeometry relative="1" as="geometry" />
        </mxCell>
        <mxCell id="Cq1sjQfqMpstkBMXXqz1-2" value="input year" style="shape=parallelogram;perimeter=parallelogramPerimeter;whiteSpace=wrap;html=1;fixedSize=1;" parent="1" vertex="1">
          <mxGeometry x="195" y="170" width="120" height="60" as="geometry" />
        </mxCell>
        <mxCell id="Cq1sjQfqMpstkBMXXqz1-5" value="true" style="edgeStyle=orthogonalEdgeStyle;rounded=0;orthogonalLoop=1;jettySize=auto;html=1;exitX=0.5;exitY=1;exitDx=0;exitDy=0;entryX=0.5;entryY=0;entryDx=0;entryDy=0;" parent="1" source="Cq1sjQfqMpstkBMXXqz1-3" target="Cq1sjQfqMpstkBMXXqz1-4" edge="1">
          <mxGeometry relative="1" as="geometry" />
        </mxCell>
        <mxCell id="Cq1sjQfqMpstkBMXXqz1-8" value="fasle" style="edgeStyle=orthogonalEdgeStyle;rounded=0;orthogonalLoop=1;jettySize=auto;html=1;exitX=1;exitY=0.5;exitDx=0;exitDy=0;" parent="1" source="Cq1sjQfqMpstkBMXXqz1-3" target="Cq1sjQfqMpstkBMXXqz1-7" edge="1">
          <mxGeometry relative="1" as="geometry" />
        </mxCell>
        <mxCell id="Cq1sjQfqMpstkBMXXqz1-3" value="year % 4 == 0" style="rhombus;whiteSpace=wrap;html=1;" parent="1" vertex="1">
          <mxGeometry x="190" y="270" width="130" height="130" as="geometry" />
        </mxCell>
        <mxCell id="Cq1sjQfqMpstkBMXXqz1-9" value="true" style="edgeStyle=orthogonalEdgeStyle;rounded=0;orthogonalLoop=1;jettySize=auto;html=1;exitX=0.5;exitY=1;exitDx=0;exitDy=0;" parent="1" source="Cq1sjQfqMpstkBMXXqz1-4" edge="1">
          <mxGeometry relative="1" as="geometry">
            <mxPoint x="255" y="660" as="targetPoint" />
          </mxGeometry>
        </mxCell>
        <mxCell id="sc6EtWfa-c7AkjQpK7h0-2" value="false" style="edgeStyle=orthogonalEdgeStyle;rounded=0;orthogonalLoop=1;jettySize=auto;html=1;exitX=0;exitY=0.5;exitDx=0;exitDy=0;entryX=0;entryY=0.5;entryDx=0;entryDy=0;" edge="1" parent="1" source="Cq1sjQfqMpstkBMXXqz1-4" target="Cq1sjQfqMpstkBMXXqz1-12">
          <mxGeometry relative="1" as="geometry">
            <Array as="points">
              <mxPoint x="90" y="515" />
              <mxPoint x="90" y="890" />
            </Array>
          </mxGeometry>
        </mxCell>
        <mxCell id="Cq1sjQfqMpstkBMXXqz1-4" value="year % 100 == 0" style="rhombus;whiteSpace=wrap;html=1;" parent="1" vertex="1">
          <mxGeometry x="190" y="450" width="130" height="130" as="geometry" />
        </mxCell>
        <mxCell id="Cq1sjQfqMpstkBMXXqz1-16" style="edgeStyle=orthogonalEdgeStyle;rounded=0;orthogonalLoop=1;jettySize=auto;html=1;exitX=1;exitY=0.5;exitDx=0;exitDy=0;entryX=0.5;entryY=0;entryDx=0;entryDy=0;" parent="1" source="Cq1sjQfqMpstkBMXXqz1-7" target="Cq1sjQfqMpstkBMXXqz1-14" edge="1">
          <mxGeometry relative="1" as="geometry" />
        </mxCell>
        <mxCell id="Cq1sjQfqMpstkBMXXqz1-7" value="output &quot;Not a leap year&quot;" style="shape=parallelogram;perimeter=parallelogramPerimeter;whiteSpace=wrap;html=1;fixedSize=1;" parent="1" vertex="1">
          <mxGeometry x="430" y="305" width="120" height="60" as="geometry" />
        </mxCell>
        <mxCell id="Cq1sjQfqMpstkBMXXqz1-11" value="false" style="edgeStyle=orthogonalEdgeStyle;rounded=0;orthogonalLoop=1;jettySize=auto;html=1;exitX=1;exitY=0.5;exitDx=0;exitDy=0;entryX=0.5;entryY=1;entryDx=0;entryDy=0;" parent="1" source="Cq1sjQfqMpstkBMXXqz1-10" target="Cq1sjQfqMpstkBMXXqz1-7" edge="1">
          <mxGeometry relative="1" as="geometry" />
        </mxCell>
        <mxCell id="Cq1sjQfqMpstkBMXXqz1-13" value="true" style="edgeStyle=orthogonalEdgeStyle;rounded=0;orthogonalLoop=1;jettySize=auto;html=1;exitX=0.5;exitY=1;exitDx=0;exitDy=0;entryX=0.5;entryY=0;entryDx=0;entryDy=0;" parent="1" source="Cq1sjQfqMpstkBMXXqz1-10" target="Cq1sjQfqMpstkBMXXqz1-12" edge="1">
          <mxGeometry relative="1" as="geometry" />
        </mxCell>
        <mxCell id="Cq1sjQfqMpstkBMXXqz1-10" value="year % 400 == 0" style="rhombus;whiteSpace=wrap;html=1;" parent="1" vertex="1">
          <mxGeometry x="190" y="660" width="130" height="130" as="geometry" />
        </mxCell>
        <mxCell id="Cq1sjQfqMpstkBMXXqz1-15" style="edgeStyle=orthogonalEdgeStyle;rounded=0;orthogonalLoop=1;jettySize=auto;html=1;exitX=1;exitY=0.5;exitDx=0;exitDy=0;entryX=0;entryY=0.5;entryDx=0;entryDy=0;" parent="1" source="Cq1sjQfqMpstkBMXXqz1-12" target="Cq1sjQfqMpstkBMXXqz1-14" edge="1">
          <mxGeometry relative="1" as="geometry" />
        </mxCell>
        <mxCell id="Cq1sjQfqMpstkBMXXqz1-12" value="output &quot;This is a leap year! :&amp;gt;&quot;" style="shape=parallelogram;perimeter=parallelogramPerimeter;whiteSpace=wrap;html=1;fixedSize=1;" parent="1" vertex="1">
          <mxGeometry x="195" y="860" width="120" height="60" as="geometry" />
        </mxCell>
        <mxCell id="Cq1sjQfqMpstkBMXXqz1-14" value="end" style="rounded=1;whiteSpace=wrap;html=1;" parent="1" vertex="1">
          <mxGeometry x="580" y="860" width="120" height="60" as="geometry" />
        </mxCell>
      </root>
    </mxGraphModel>
  </diagram>
</mxfile>
